<?xml version="1.0"?><svg version="1.2" baseProfile="tiny-ps" viewBox="0 0 300 300" xmlns="http://www.w3.org/2000/svg" xmlns:xlink="http://www.w3.org/1999/xlink"><title>Coimbra Tech Afterhours</title><g><g fill="#f6f6f6" transform="matrix(.1 0 0 -.1 0 300)"><path d="M0 1500V0h3000v3000H0V1500z"/></g><g fill="#32e2fc" transform="matrix(.1 0 0 -.1 0 300)"><path d="M0 1500V0h3000v3000H0V1500zm1518 742 3-142h407l6-16c3-9 6-42 6-75v-60l15-5c21-8 19-26-5-47l-20-17v-380l25-6 25-6 25-30 25-30v-53l-20-32-19-32-26-7-25-6V697l-17-13c-10-7-21-14-25-14h-8v488l-31 6c-41 8-643 8-702 0l-47-7-2-246-3-246-22 23-23 22v590h-14c-8 0-26 14-40 31l-26 31v65l21 27c12 15 32 32 45 36l24 10v388l-22 15-23 16 22 18 22 18 3 70 3 70 198 3 197 2v129c0 71 3 137 6 146l7 16 16-3 16-3 3-143zm60-1201c46-23 67-46 87-94l15-36V602l-24-4-25-5-3 168-3 168-21 28-21 28-41 15-42 14-42-14-41-15-21-28-21-29 1-164 1-164h-57v153l1 152 13 38c17 47 40 73 86 98l35 18 43 1h43l37-19zm491-253-12-23-5 13c-4 13 17 46 25 38 3-2-1-15-8-28zm-1109-8c0-5-2-10-4-10-3 0-8 5-11 10l-6 10h10c6 0 11-4 11-10zm157 1263c-9-8-9-66-1-87l6-16h179l42 22 42 21 101 5 101 4 59-26 60-27 89 3 90 3 3 53 3 52h-768l-6-7zm234-123-43-20h-188v-399l63-3 62-3v-40l-95-5c-52-3-101-9-107-13l-13-8v-55l12-12 12-12h893l16 18c10 10 17 26 17 35v16l-22 15-22 16h-175l-6 10-7 11 12 14 12 15h118v400h-211l-39 20-39 20h-206l-44-20zm229-109c19-10 48-34 64-54l29-37 5-54 4-55-22-46-22-45-42-25-43-25h-105l-37 21-36 20-25 36-25 37v133l28 36 28 37 37 20 37 19 45 1h45l35-19zm-147-51-32-19-17-32-16-32 5-46 5-45 36-33 36-33h100l36 33 36 33 5 45 5 46-16 32-17 32-32 19-32 20h-70l-32-20zm-319-474c-3-8-4-25-2-38l3-23 388-3 387-2v67l-82 6c-46 4-219 7-386 7h-303l-5-14z"/></g><g fill="#7b9194" transform="matrix(.1 0 0 -.1 0 300)"><path d="M0 1500V0h3000v3000H0V1500zm1377 1101 12-20 23-4c13-3 4-3-19-1l-42 3-6-9c-3-6-16-10-29-10-12 0-60-11-107-25l-84-25-100-49-100-50-66-50c-193-146-331-351-396-588l-28-98v-350l23-82c12-45 37-118 56-162l34-81 55-83 55-82 75-76c165-168 367-274 601-314 49-8 111-15 137-15h49l-4-22-3-23-104 2-104 1-99 26-100 26-90 44c-123 60-200 113-290 197l-76 71-60 80-61 80-49 102-49 101-27 95-26 95-5 145-5 145 15 90c81 459 422 820 867 915 47 10 92 19 100 19l15 1 12-19zm141-359 3-142h407l6-16c3-9 6-42 6-75v-60l15-5c21-8 19-26-5-47l-20-17v-380l25-6 25-6 25-30 25-30v-53l-20-32-19-32-26-7-25-6V697l-17-13c-10-7-21-14-25-14h-8v488l-31 6c-41 8-643 8-702 0l-47-7-2-246-3-246-22 23-23 22v590h-14c-8 0-26 14-40 31l-26 31v65l21 27c12 15 32 32 45 36l24 10v388l-22 15-23 16 22 18 22 18 3 70 3 70 198 3 197 2v129c0 71 3 137 6 146l7 16 16-3 16-3 3-143zm724-519 18-16v-57l-20-17-20-17v-195l-61-75c-33-42-65-78-70-81l-9-6V804l-15-20-14-19-1 251v252l70 85 70 85v180l-22 14-21 14v67l18 13c25 19 55 18 77-3zM840 1570l20-20v-50l-20-20-20-20v-165l64-70 63-70 7-195 8-194-21 18-21 19v329l-70 76-70 76v182l-20 17-20 17v50l20 20 20 20h40l20-20zm738-529c46-23 67-46 87-94l15-36V602l-24-4-25-5-3 168-3 168-21 28-21 28-41 15-42 14-42-14-41-15-21-28-21-29 1-164 1-164h-57v153l1 152 13 38c17 47 40 73 86 98l35 18 43 1h43l37-19zm-461 1002c-9-8-9-66-1-87l6-16h179l42 22 42 21 101 5 101 4 59-26 60-27 89 3 90 3 3 53 3 52h-768l-6-7zm234-123-43-20h-188v-399l63-3 62-3v-40l-95-5c-52-3-101-9-107-13l-13-8v-55l12-12 12-12h893l16 18c10 10 17 26 17 35v16l-22 15-22 16h-175l-6 10-7 11 12 14 12 15h118v400h-211l-39 20-39 20h-206l-44-20zm229-109c19-10 48-34 64-54l29-37 5-54 4-55-22-46-22-45-42-25-43-25h-105l-37 21-36 20-25 36-25 37v133l28 36 28 37 37 20 37 19 45 1h45l35-19zm-147-51-32-19-17-32-16-32 5-46 5-45 36-33 36-33h100l36 33 36 33 5 45 5 46-16 32-17 32-32 19-32 20h-70l-32-20zm-319-474c-3-8-4-25-2-38l3-23 388-3 387-2v67l-82 6c-46 4-219 7-386 7h-303l-5-14zm1070 409-7-16 11-11 11-11 16 7 16 6-3 17-3 18-18 3-17 3-6-16zM780 1530v-20h40v40h-40v-20z"/></g><g fill="#1980f7" transform="matrix(.1 0 0 -.1 0 300)"><path d="M0 1500V0h3000v3000H0V1500zm1374 1117-5-14 13-10c7-6 24-13 38-15l25-4-37-5-37-5 5 8 5 8h-13c-8 0-18-4-24-10-5-5-23-12-39-14-50-7-95-20-170-46-42-15-182-86-220-113-22-15-51-35-65-44-27-19-175-166-200-198-82-108-158-267-190-400-6-27-14-59-17-70s-7-85-9-165l-4-145 9-35c5-19 14-62 21-95 25-113 99-268 179-375 126-167 260-271 466-360 18-8 123-43 135-45 3-1 19-4 35-8 70-16 148-26 212-26l33-1-4-22-3-23-44-5-44-5-85 13c-180 27-303 69-406 137-29 19-55 35-59 35-28 0-237 202-301 290-79 111-148 253-169 349-3 12-7 31-10 43-3 13-10 48-16 78l-11 55-1 105c-1 152 15 251 64 394 50 144 95 223 205 356 161 194 369 317 634 375 58 12 106 23 107 24 1 0 0-5-3-12zm154-373 3-141 183 5 183 5 21-12 22-12v-137l15-6 15-5v-32l-15-5-15-6v-398h16c8 0 29-13 45-29l29-29v-79l-21-27c-12-15-32-32-45-36l-24-10V691l-30-16-30-16v501h-760V670h-11c-6 0-19 5-30 10l-19 11v594l-30 17-30 17-16 34-17 35 7 27c7 27 37 61 72 81l19 11-3 189-3 189-15 11c-18 15-18 33 1 40l15 6v134l12 12 12 12h386v277l7 7c4 4 16 6 28 4l20-3 3-141zm723-526c24-27 24-49-1-81l-20-25v-179l-37-49c-20-27-54-69-76-94l-39-45 4-222 5-222-24-22-23-22v500l75 94 75 93v165l-25 25-25 25v18c0 10 7 29 16 41l15 22h62l18-22zM842 1573l18-16v-64l-20-18-20-18v-159l70-76 70-76V757l-20 18-20 18v337l-70 74-70 73v188l-20 13-20 12v69l22 15c29 21 57 20 80-1zm701-514 38-10 36-32 36-32 13-32 14-32V602l-16-6c-9-3-22-6-30-6h-14v342l-34 34-34 34h-104l-34-34-34-34V590h-14c-8 0-21 3-30 6l-16 6v322l21 42 20 43 35 22c60 37 93 43 147 28zm-375 984-48-4v-99h161l59 25 59 25h206l44-20 43-20h188v100l-332-2c-183-1-354-3-380-5zm222-112c-14-5-40-15-57-24l-32-17h-181v-389l62-3 63-3 3-19 4-19-14-8-13-9h-171l-12-12c-17-17-15-44 4-62l15-16h887l11 14 12 15-3 28-3 28-97 3-96 3-12 14-12 15 6 15 5 15h121v400h-211l-39 20-39 20-88-1c-48 0-99-4-113-8zm201-122 37-19 21-28c11-16 26-49 32-73l11-44-11-42-12-42-26-32-27-32-41-18-40-19h-70l-41 19-41 19-26 33c-14 19-30 53-36 76l-12 42 7 28c4 15 16 45 27 66l21 38 33 20c18 12 46 25 61 29l27 9 35-5c19-3 51-14 71-25zm-136-43c-16-7-40-25-53-38l-23-25-5-35-6-34 15-37 16-37 33-20 33-20h70l33 20 33 20 15 35c19 46 18 73-4 114l-19 34-34 19c-40 21-63 22-104 4zm-335-511v-35h760v70h-760v-35zm1078 447-18-3v-30l16-6 15-6 11 11 10 10-8 14-9 14-17-4zM784 1539l-6-11 10-10 10-10 11 6c6 4 11 14 11 22v14h-14c-8 0-18-5-22-11z"/></g><g fill="#0a304f" transform="matrix(.1 0 0 -.1 0 300)"><path d="M0 1500V0h3000v3000H0V1500zm1666 1119c166-23 326-85 471-182l78-52 81-81 82-81 52-78c29-43 73-120 97-171l44-93 26-98 27-98v-370l-27-100-27-100-40-84c-156-324-434-549-780-631l-95-23-140-1-140-1-75 14c-225 41-416 139-583 300-183 176-289 367-333 597l-16 89v120l-1 120 17 89c90 471 447 826 918 911l73 13 107 1 107 1 77-11zm-353-63c-268-51-504-197-665-410l-61-81-49-100-48-100-26-100-26-100-5-114-6-113 13-87 13-86 28-89c110-338 383-599 732-700l86-25 106-11 107-12 100 12 101 11 86 25 86 25 100 49 100 50 90 73 90 73 65 81c123 153 193 305 226 494l16 94-5 130-5 130-25 95c-31 118-79 224-147 326l-53 79-86 85-86 86-74 49c-90 59-217 115-331 145l-85 22-145 4-145 3-72-13zm215-312 3-141 183 5 183 5 21-12 22-12v-137l15-6 15-5v-32l-15-5-15-6v-398h16c8 0 29-13 45-29l29-29v-79l-21-27c-12-15-32-32-45-36l-24-10V691l-30-16-30-16v501h-760V670h-11c-6 0-19 5-30 10l-19 11v594l-30 17-30 17-16 34-17 35 7 27c7 27 37 61 72 81l19 11-3 189-3 189-15 11c-18 15-18 33 1 40l15 6v134l12 12 12 12h386v277l7 7c4 4 16 6 28 4l20-3 3-141zm726-526c21-30 20-50-4-81l-20-25v-179l-37-49c-20-27-54-69-76-94l-39-45 4-222 5-222-24-22-23-22v500l75 94 75 93v165l-25 25-25 25v18c0 10 7 29 16 41l15 22h68l15-22zM842 1573l18-16v-64l-20-18-20-18v-159l70-76 70-76V757l-20 18-20 18v337l-70 74-70 73v188l-20 13-20 12v69l22 15c29 21 57 20 80-1zm701-514 38-10 36-32 36-32 13-32 14-32V602l-16-6c-9-3-22-6-30-6h-14v342l-34 34-34 34h-104l-34-34-34-34V590h-14c-8 0-21 3-30 6l-16 6v322l21 42 20 43 35 22c60 37 93 43 147 28zm-375 984-48-4v-99h161l59 25 59 25h206l44-20 43-20h188v100l-332-2c-183-1-354-3-380-5zm222-112c-14-5-40-15-57-24l-32-17h-181v-389l62-3 63-3 3-19 4-19-14-8-13-9h-171l-12-12c-17-17-15-44 4-62l15-16h887l11 14 12 15-3 28-3 28-97 3-96 3-12 14-12 15 6 15 5 15h121v400h-211l-39 20-39 20-88-1c-48 0-99-4-113-8zm201-122 37-19 21-28c11-16 26-49 32-73l11-44-11-42-12-42-26-32-27-32-41-18-40-19h-70l-41 19-41 19-26 33c-14 19-30 53-36 76l-12 42 7 28c4 15 16 45 27 66l21 38 33 20c18 12 46 25 61 29l27 9 35-5c19-3 51-14 71-25zm-136-43c-16-7-40-25-53-38l-23-25-5-35-6-34 15-37 16-37 33-20 33-20h70l33 20 33 20 15 35c19 46 18 73-4 114l-19 34-34 19c-40 21-63 22-104 4zm-335-511v-35h760v70h-760v-35zm1062 428 3-18h40v30l-23 3-24 4 4-19zM784 1539l-6-11 10-10 10-10 11 6c6 4 11 14 11 22v14h-14c-8 0-18-5-22-11z"/></g><g fill="#0a0e13" transform="matrix(.1 0 0 -.1 0 300)"><path d="M0 1500V0h3000v3000H0V1500zm1645 1189c113-15 210-42 327-91l103-42 85-57c171-115 323-291 420-487 46-94 74-183 95-299l15-88v-220l-14-85c-19-120-51-219-106-335l-47-100-57-80c-182-254-431-418-733-485l-88-20-135 1h-135l-75 13c-159 29-360 113-498 209-34 23-97 75-141 115l-80 72-62 83-62 82-48 100-48 100-25 87c-14 48-30 127-37 175l-12 88 6 130 6 130 24 95 25 95 45 103 46 103 57 84c70 104 146 189 243 272l74 63 106 54c127 64 259 110 361 125 41 6 86 13 100 15 55 8 193 5 265-5zm-285-129c-99-14-234-56-329-102l-84-42-76-56c-223-167-363-389-420-669-6-30-14-93-18-141l-6-87 12-84c7-46 23-124 37-174l26-89 40-81c53-106 117-194 203-281l70-70 75-51c139-94 258-144 413-174l98-19h211l101 21 102 20 101 43 102 43 73 49 74 48 86 86 87 85 57 89c98 150 144 282 167 474l12 102-13 105-12 106-25 87-25 87-41 84c-23 46-67 118-98 160l-56 76-86 80-86 80-79 47c-101 60-211 104-321 128l-87 20-110 4-110 5-65-9zm158-172 12-12v-266h386l12-12 12-12v-128l22-17 22-18-22-19-22-18v-381l33-15 32-15 18-37 18-36-7-26c-6-25-29-52-69-80l-20-14-3-300-3-299-25-12c-14-6-27-11-29-11-3 0-5 113-5 250v250h-760V659l-30 16-30 16v598l-20 6c-10 3-31 20-45 36l-25 31v66l25 31c14 16 35 33 45 36l20 6v387l-15 6-15 5v39l15 6 15 5v140l11 7c16 9 83 13 252 14h147v266l12 12c7 7 15 12 18 12s11-5 18-12zm726-659 26-20v-56l-20-18-20-18v-193l-70-87-70-86V809l-16-24c-9-14-20-25-25-25h-9v505l70 85 70 85v175l-20 20-20 20v28c0 40 26 68 66 71 6 1 23-8 38-20zM849 1564c26-33 26-45 1-77l-20-25v-169l63-68 62-68 5-196c3-108 4-198 2-200-1-3-13 6-27 19l-25 23v166l-1 166-64 70-65 70v182l-20 18c-11 10-22 26-25 36l-6 18 12 23c16 30 28 38 61 38h27l20-26zm727-515 45-22 27-35 27-35 7-176 6-176-11-7c-7-4-22-8-34-8h-23v343l-36 33-35 34h-101l-34-34-34-34V589l-27 3-28 3v362l27 35 27 35 43 22 43 21h65l46-21zm-273 994-183-3v-90h186l39 20 39 20h231l44-20 43-20h178v100l-197-2c-109-2-280-4-380-5zm152-112-80-6-32-18-32-17h-191l2-189 1-189 30-6c16-3 44-6 62-6h33l5-12c2-7 0-21-5-30l-9-18h-188l-11-21-11-20 16-25 15-24h879l15 16c19 18 21 45 4 62l-12 12h-82c-45 0-89 3-98 6l-16 6v47l63 3 62 3 3 193 2 192h-191l-38 20c-49 24-94 29-196 21zm113-106c49-21 81-52 103-100l19-40v-70l-19-40c-34-74-95-115-170-115h-39l-33 14c-43 18-84 61-103 108-19 44-20 69-5 123l11 40 39 37 39 38 33 9c48 14 84 13 125-4zm-98-56-35-7-27-31-28-31v-106l33-32 34-33 35-5 35-6 36 17c40 19 61 46 69 89l6 28-9 32-9 32-23 22c-13 13-37 26-53 30l-29 8-35-7zm-350-514v-35h760v70h-760v-35zm1067 439c-9-10 2-24 19-24h14v30h-13c-8 0-17-3-20-6zM784 1539l-6-11 11-11 11-11 11 11 11 11-6 11c-4 6-11 11-16 11s-12-5-16-11z"/></g></g></svg>